<?xml version="1.0" encoding="utf-8"?>
<svg version="1.1" id="Layer_1" xmlns="http://www.w3.org/2000/svg"
	xmlns:xlink="http://www.w3.org/1999/xlink" x="0px" y="0px"
	viewBox="0 0 201 201" style="enable-background:new 0 0 201 201;" xml:space="preserve">
<style type="text/css">
	.st0{fill:#F2F2F2;}
	.st1{opacity:0.4;}
</style>
<g>
	<g>
		<g>
			<path class="st0" d="M100.5,199.5c-25.4,0-50.7-9.7-70.1-29c-38.6-38.6-38.6-101.5,0-140.1c38.6-38.6,101.5-38.6,140.1,0
				c38.6,38.6,38.6,101.5,0,140.1C151.2,189.9,125.9,199.5,100.5,199.5z M100.5,5.6c-24.3,0-48.7,9.3-67.2,27.8
				c-37,37-37,97.3,0,134.3c37,37,97.3,37,134.3,0c37-37,37-97.3,0-134.3C149.2,14.8,124.8,5.6,100.5,5.6z"/>
		</g>
	</g>
	<g class="st1">
		<path class="st0" d="M40.4,150.4c3.4-4.5,8.4-6.9,13.6-7.1c-20.2-22-22.6-56-4-80.7c20.9-27.8,60.6-33.4,88.4-12.4
			c5.7,4.3,13.7,3.1,18-2.5s3.1-13.7-2.5-18C114.8,0.1,59,8,29.6,47.1C2.9,82.5,6.8,131.6,36.9,162.5
			C36.6,158.3,37.7,154,40.4,150.4z"/>
	</g>
	<g>
		<path class="st0" d="M164.1,38.5c0.3,4.2-0.8,8.5-3.6,12.1c-3.4,4.5-8.4,6.9-13.6,7.1c20.2,22,22.6,56,4,80.7
			c-20.9,27.8-60.6,33.4-88.4,12.4c-5.7-4.3-13.7-3.1-18,2.5c-4.3,5.7-3.1,13.7,2.5,18c39.1,29.5,94.9,21.6,124.4-17.5
			C198.1,118.5,194.2,69.4,164.1,38.5z"/>
	</g>
	<g>
		<path class="st0" d="M169.1,33.9c-0.5,0-1-0.2-1.4-0.6c-0.8-0.8-0.8-2.1,0-2.9l17.3-17.3c0.8-0.8,2.1-0.8,2.9,0
			c0.8,0.8,0.8,2.1,0,2.9l-17.3,17.3C170.2,33.7,169.6,33.9,169.1,33.9z"/>
	</g>
	<g>
		<path class="st0" d="M14.6,188.4c-0.5,0-1-0.2-1.4-0.6c-0.8-0.8-0.8-2.1,0-2.9l17.3-17.3c0.8-0.8,2.1-0.8,2.9,0
			c0.8,0.8,0.8,2.1,0,2.9l-17.3,17.3C15.7,188.2,15.1,188.4,14.6,188.4z"/>
	</g>
	<g>
		<g>
			<path class="st0" d="M100.5,199.5c-25.4,0-50.7-9.7-70.1-29c-38.6-38.6-38.6-101.5,0-140.1c38.6-38.6,101.5-38.6,140.1,0
				c38.6,38.6,38.6,101.5,0,140.1C151.2,189.9,125.9,199.5,100.5,199.5z M100.5,5.6c-24.3,0-48.7,9.3-67.2,27.8
				c-37,37-37,97.3,0,134.3c37,37,97.3,37,134.3,0c37-37,37-97.3,0-134.3C149.2,14.8,124.8,5.6,100.5,5.6z"/>
		</g>
	</g>
	<g>
		<g>
			<path class="st0" d="M100.5,157.4c-14.6,0-29.1-5.5-40.2-16.6c-22.2-22.2-22.2-58.3,0-80.5c22.2-22.2,58.3-22.2,80.5,0
				s22.2,58.3,0,80.5C129.6,151.8,115.1,157.4,100.5,157.4z M100.5,47.7c-13.5,0-27,5.1-37.3,15.4c-20.6,20.6-20.6,54.1,0,74.7
				c20.6,20.6,54.1,20.6,74.7,0c20.6-20.6,20.6-54.1,0-74.7C127.5,52.9,114,47.7,100.5,47.7z"/>
		</g>
	</g>
</g>
</svg>