<?xml version="1.0" encoding="utf-8"?>
<!-- Generator: Adobe Illustrator 24.1.0, SVG Export Plug-In . SVG Version: 6.00 Build 0)  -->
<svg version="1.1" id="Layer_1" xmlns="http://www.w3.org/2000/svg" xmlns:xlink="http://www.w3.org/1999/xlink" x="0px" y="0px"
	 viewBox="0 0 1027 201" style="enable-background:new 0 0 1027 201;" xml:space="preserve">
<style type="text/css">
	.st0{fill:#332E20;}
	.st1{fill:#CA3755;}
	.st2{fill:#F2F2F2;}
</style>
<g>
	<path class="st0" d="M169.1,31.9c-37.8-37.8-99.4-37.8-137.2,0s-37.8,99.4,0,137.2s99.4,37.8,137.2,0S207,69.7,169.1,31.9z
		 M139.3,139.3c-21.4,21.4-56.2,21.4-77.6,0c-21.4-21.4-21.4-56.2,0-77.6c21.4-21.4,56.2-21.4,77.6,0
		C160.7,83.1,160.7,117.9,139.3,139.3z"/>
</g>
<g>
	<g>
		<path class="st0" d="M100.5,199.5c-25.4,0-50.7-9.7-70.1-29c-38.6-38.6-38.6-101.5,0-140.1C69.1-8.2,132-8.2,170.6,30.4
			c38.6,38.6,38.6,101.5,0,140.1C151.3,189.9,125.9,199.5,100.5,199.5z M100.5,5.6c-24.3,0-48.7,9.3-67.2,27.8
			c-37,37-37,97.3,0,134.3c37,37,97.3,37,134.3,0c37-37,37-97.3,0-134.3C149.2,14.8,124.9,5.6,100.5,5.6z"/>
	</g>
</g>
<g>
	<path class="st1" d="M40.5,150.4c3.4-4.5,8.4-6.9,13.6-7.1c-20.2-22-22.6-56-4-80.7c20.9-27.8,60.6-33.4,88.4-12.4
		c5.7,4.3,13.7,3.1,18-2.5c4.3-5.7,3.1-13.7-2.5-18C114.9,0.1,59.1,8,29.6,47.1C2.9,82.5,6.8,131.6,36.9,162.5
		C36.6,158.3,37.8,154,40.5,150.4z"/>
</g>
<g>
	<path class="st2" d="M164.1,38.5c0.3,4.2-0.8,8.5-3.6,12.1c-3.4,4.5-8.4,6.9-13.6,7.1c20.2,22,22.6,56,4,80.7
		c-20.9,27.8-60.6,33.4-88.4,12.4c-5.7-4.3-13.7-3.1-18,2.5c-4.3,5.7-3.1,13.7,2.5,18c39.1,29.5,94.9,21.6,124.4-17.5
		C198.2,118.5,194.2,69.4,164.1,38.5z"/>
</g>
<g>
	<path class="st0" d="M169.1,33.9c-0.5,0-1-0.2-1.4-0.6c-0.8-0.8-0.8-2.1,0-2.9L185,13.2c0.8-0.8,2.1-0.8,2.9,0
		c0.8,0.8,0.8,2.1,0,2.9l-17.3,17.3C170.2,33.7,169.7,33.9,169.1,33.9z"/>
</g>
<g>
	<path class="st0" d="M14.6,188.4c-0.5,0-1-0.2-1.4-0.6c-0.8-0.8-0.8-2.1,0-2.9l17.3-17.3c0.8-0.8,2.1-0.8,2.9,0
		c0.8,0.8,0.8,2.1,0,2.9l-17.3,17.3C15.7,188.2,15.2,188.4,14.6,188.4z"/>
</g>
<g>
	<g>
		<path class="st0" d="M100.5,199.5c-25.4,0-50.7-9.7-70.1-29c-38.6-38.6-38.6-101.5,0-140.1C69.1-8.2,132-8.2,170.6,30.4
			c38.6,38.6,38.6,101.5,0,140.1C151.3,189.9,125.9,199.5,100.5,199.5z M100.5,5.6c-24.3,0-48.7,9.3-67.2,27.8
			c-37,37-37,97.3,0,134.3c37,37,97.3,37,134.3,0c37-37,37-97.3,0-134.3C149.2,14.8,124.9,5.6,100.5,5.6z"/>
	</g>
</g>
<g>
	<g>
		<path class="st0" d="M100.5,157.4c-15.2,0-29.5-5.9-40.2-16.6c-22.2-22.2-22.2-58.3,0-80.5l0,0c22.2-22.2,58.3-22.2,80.5,0
			c22.2,22.2,22.2,58.3,0,80.5C130,151.5,115.7,157.4,100.5,157.4z M63.2,63.2c-20.6,20.6-20.6,54.1,0,74.7
			c10,10,23.2,15.4,37.3,15.4s27.4-5.5,37.3-15.4c20.6-20.6,20.6-54.1,0-74.7C117.3,42.6,83.8,42.6,63.2,63.2L63.2,63.2z"/>
	</g>
</g>
<g>
	<path class="st0" d="M425.4,55.5h18.8l32.8,90h-21.3l-7-20.2h-28l-6.8,20.2h-21.3L425.4,55.5z M445.3,111l-10.5-31.8L424,111H445.3
		z"/>
</g>
<g>
	<path class="st0" d="M485.9,145.5v-90h20.8v90H485.9z"/>
</g>
<g>
	<path class="st0" d="M544.7,94v51.5h-20.8v-90h16.2l42,52.9V55.5h20.8v90h-16.7L544.7,94z"/>
</g>
<g>
	<path class="st0" d="M784.2,145.5v-90h29.9c7.1,0,13.3,1.2,18.7,3.6c5.4,2.4,9.8,5.6,13.4,9.6c3.5,4.1,6.2,8.8,8,14.3
		c1.8,5.5,2.7,11.3,2.7,17.4c0,6.8-1,13-3,18.6c-2,5.5-4.8,10.3-8.6,14.2c-3.7,3.9-8.2,7-13.5,9.1c-5.3,2.2-11.2,3.2-17.7,3.2H784.2
		z M850.4,100.4c0-5.7-0.8-10.9-2.4-15.7c-1.6-4.8-4-8.9-7-12.4c-3.1-3.5-6.9-6.2-11.3-8.1c-4.5-1.9-9.6-2.9-15.5-2.9h-23.5v78.4
		h23.5c5.9,0,11.1-1,15.7-3c4.5-2,8.3-4.8,11.3-8.3c3-3.6,5.3-7.7,6.9-12.5C849.6,111.1,850.4,106,850.4,100.4z"/>
</g>
<g>
	<path class="st0" d="M934.6,139.7v5.8h-60v-90h58.8v5.8h-52.4v35.4h45.8v5.6h-45.8v37.4H934.6z"/>
</g>
<g>
	<path class="st0" d="M955.1,55.5l31.6,41l31.4-41h7.4l-35.4,45.6l34.4,44.4h-7.4l-30.4-39.7l-30.6,39.7h-7.5l34.4-44.4l-35.4-45.6
		H955.1z"/>
</g>
<g>
	<g>
		<polygon class="st0" points="279.8,73.7 307.2,73.7 307.2,55.5 231.5,55.5 231.5,73.7 259,73.7 		"/>
	</g>
	<g>
		<rect x="259" y="79.2" class="st0" width="20.8" height="66.3"/>
	</g>
</g>
<g>
	<g>
		<polygon class="st0" points="640.9,73.7 682.3,73.7 682.3,55.5 620.1,55.5 620.1,73.7 		"/>
	</g>
	<g>
		<polygon class="st0" points="640.9,108.1 676.4,108.1 676.4,91.2 640.9,91.2 640.9,79.2 620.1,79.2 620.1,145.5 683.4,145.5 
			683.4,127.3 640.9,127.3 		"/>
	</g>
</g>
<g>
	<path class="st0" d="M751.4,112c2.3-1.3,4.3-2.8,6.1-4.6c1.8-1.8,3.4-3.9,4.6-6.2c1.3-2.3,2.2-4.7,2.9-7.3c0.7-2.6,1-5.3,1-8.1
		c0-3.7-0.7-7.4-2.2-11c-1.5-3.6-3.5-6.9-6.1-9.8c-2.6-2.9-5.7-5.2-9.3-7c-3.6-1.8-7.5-2.7-11.7-2.7h-40.6v18.3h20.8h18.4
		c2.4,0,4.6,1.1,6.6,3.3c2,2.2,3,5.2,3,8.9c0,3.6-0.9,6.6-2.7,8.9c-1.8,2.3-3.9,3.5-6.3,3.5h-19V79.2h-20.8v66.3h20.8v-29h13.6
		l17.2,29h23.5L751.4,112z"/>
</g>
<g>
	<path class="st0" d="M372.6,112c2.3-1.3,4.3-2.8,6.1-4.6c1.8-1.8,3.4-3.9,4.6-6.2s2.2-4.7,2.9-7.3c0.7-2.6,1-5.3,1-8.1
		c0-3.7-0.7-7.4-2.2-11c-1.5-3.6-3.5-6.9-6.1-9.8c-2.6-2.9-5.7-5.2-9.3-7c-3.6-1.8-7.5-2.7-11.7-2.7h-40.6v18.3h20.8h18.4
		c2.4,0,4.6,1.1,6.6,3.3c2,2.2,3,5.2,3,8.9c0,3.6-0.9,6.6-2.7,8.9c-1.8,2.3-3.9,3.5-6.3,3.5h-19V79.2h-20.8v66.3h20.8v-29h13.6
		l17.2,29h23.5L372.6,112z"/>
</g>
<g>
	<polygon class="st1" points="939.5,145.5 942.7,145.5 977,101.2 942.6,55.5 939.4,55.5 973.8,101.2 	"/>
</g>
</svg>
